<?xml version="1.0" encoding="UTF-8" standalone="no"?>
<svg
   xmlns:dc="http://purl.org/dc/elements/1.1/"
   xmlns:cc="http://creativecommons.org/ns#"
   xmlns:rdf="http://www.w3.org/1999/02/22-rdf-syntax-ns#"
   xmlns:svg="http://www.w3.org/2000/svg"
   xmlns="http://www.w3.org/2000/svg"
   xmlns:sodipodi="http://sodipodi.sourceforge.net/DTD/sodipodi-0.dtd"
   xmlns:inkscape="http://www.inkscape.org/namespaces/inkscape"
   width="64pt"
   height="64pt"
   viewBox="0 0 22.577778 22.577778"
   version="1.1"
   id="svg831"
   inkscape:version="1.0 (4035a4fb49, 2020-05-01)"
   sodipodi:docname="01 - Apple.svg">
  <defs
     id="defs825">
    <pattern
       id="EMFhbasepattern"
       patternUnits="userSpaceOnUse"
       width="6"
       height="6"
       x="0"
       y="0" />
    <pattern
       id="EMFhbasepattern-9"
       patternUnits="userSpaceOnUse"
       width="6"
       height="6"
       x="0"
       y="0" />
    <pattern
       id="EMFhbasepattern-0"
       patternUnits="userSpaceOnUse"
       width="6"
       height="6"
       x="0"
       y="0" />
    <pattern
       id="EMFhbasepattern-7"
       patternUnits="userSpaceOnUse"
       width="6"
       height="6"
       x="0"
       y="0" />
    <pattern
       id="EMFhbasepattern-2"
       patternUnits="userSpaceOnUse"
       width="6"
       height="6"
       x="0"
       y="0" />
    <pattern
       id="EMFhbasepattern-98"
       patternUnits="userSpaceOnUse"
       width="6"
       height="6"
       x="0"
       y="0" />
    <pattern
       id="EMFhbasepattern-6"
       patternUnits="userSpaceOnUse"
       width="6"
       height="6"
       x="0"
       y="0" />
    <pattern
       id="EMFhbasepattern-01"
       patternUnits="userSpaceOnUse"
       width="6"
       height="6"
       x="0"
       y="0" />
    <pattern
       id="EMFhbasepattern-07"
       patternUnits="userSpaceOnUse"
       width="6"
       height="6"
       x="0"
       y="0" />
    <pattern
       id="EMFhbasepattern-8"
       patternUnits="userSpaceOnUse"
       width="6"
       height="6"
       x="0"
       y="0" />
    <pattern
       id="EMFhbasepattern-4"
       patternUnits="userSpaceOnUse"
       width="6"
       height="6"
       x="0"
       y="0" />
    <pattern
       id="EMFhbasepattern-40"
       patternUnits="userSpaceOnUse"
       width="6"
       height="6"
       x="0"
       y="0" />
    <pattern
       id="EMFhbasepattern-08"
       patternUnits="userSpaceOnUse"
       width="6"
       height="6"
       x="0"
       y="0" />
    <pattern
       id="EMFhbasepattern-04"
       patternUnits="userSpaceOnUse"
       width="6"
       height="6"
       x="0"
       y="0" />
    <pattern
       id="EMFhbasepattern-014"
       patternUnits="userSpaceOnUse"
       width="6"
       height="6"
       x="0"
       y="0" />
    <pattern
       id="EMFhbasepattern-27"
       patternUnits="userSpaceOnUse"
       width="6"
       height="6"
       x="0"
       y="0" />
    <pattern
       id="EMFhbasepattern-09"
       patternUnits="userSpaceOnUse"
       width="6"
       height="6"
       x="0"
       y="0" />
    <pattern
       id="EMFhbasepattern-5"
       patternUnits="userSpaceOnUse"
       width="6"
       height="6"
       x="0"
       y="0" />
    <pattern
       id="EMFhbasepattern-018"
       patternUnits="userSpaceOnUse"
       width="6"
       height="6"
       x="0"
       y="0" />
  </defs>
  <sodipodi:namedview
     id="base"
     pagecolor="#ffffff"
     bordercolor="#666666"
     borderopacity="1.0"
     inkscape:pageopacity="0.0"
     inkscape:pageshadow="2"
     inkscape:zoom="6.2578125"
     inkscape:cx="37.792759"
     inkscape:cy="42.666667"
     inkscape:document-units="pt"
     inkscape:current-layer="layer1"
     showgrid="false"
     units="pt"
     inkscape:window-width="1366"
     inkscape:window-height="705"
     inkscape:window-x="-8"
     inkscape:window-y="-8"
     inkscape:window-maximized="1"
     inkscape:pagecheckerboard="true"
     inkscape:showpageshadow="false"
     inkscape:object-paths="true"
     inkscape:snap-intersection-paths="true"
     inkscape:snap-smooth-nodes="true"
     inkscape:snap-midpoints="true"
     showguides="true"
     inkscape:snap-bbox="true"
     inkscape:bbox-nodes="true"
     inkscape:snap-nodes="false"
     inkscape:snap-global="true"
     inkscape:document-rotation="0">
    <inkscape:grid
       type="xygrid"
       id="grid1378" />
    <sodipodi:guide
       position="0.97013831,21.607643"
       orientation="78.000048,0"
       id="guide1380"
       inkscape:locked="false" />
    <sodipodi:guide
       position="0.97013831,0.97013129"
       orientation="0,78.000005"
       id="guide1382"
       inkscape:locked="false" />
    <sodipodi:guide
       position="21.607639,0.97013129"
       orientation="-78.000048,0"
       id="guide1384"
       inkscape:locked="false" />
    <sodipodi:guide
       position="21.607639,21.607643"
       orientation="0,-78.000005"
       id="guide1386"
       inkscape:locked="false" />
  </sodipodi:namedview>
  <metadata
     id="metadata828">
    <rdf:RDF>
      <cc:Work
         rdf:about="">
        <dc:format>image/svg+xml</dc:format>
        <dc:type
           rdf:resource="http://purl.org/dc/dcmitype/StillImage" />
        <dc:title></dc:title>
      </cc:Work>
    </rdf:RDF>
  </metadata>
  <g
     inkscape:label="Icon"
     inkscape:groupmode="layer"
     id="layer1"
     transform="translate(0,-274.42223)">
    <g
       transform="matrix(1.2563327,0,0,1.2563327,77.294629,-38.461405)"
       style="display:inline;stroke-width:0.795967"
       id="g447">
      <g
         style="stroke-width:0.795967"
         id="g1375">
        <path
           id="path1251"
           d="m -56.257812,250.11523 c -0.573224,-0.005 -1.253097,0.1769 -1.785157,0.4043 -0.266583,0.11394 -0.491813,0.2355 -0.658203,0.37891 -0.0832,0.0717 -0.158508,0.14623 -0.203125,0.26562 -0.04462,0.11939 -0.01495,0.30569 0.08008,0.40821 0.900352,0.97133 1.755361,1.30197 2.53711,1.31445 0.781748,0.0125 1.467996,-0.26456 2.091797,-0.41797 a 0.26460996,0.26460996 0 0 0 0.189453,-0.18164 l 0.271484,-0.91016 a 0.26460996,0.26460996 0 0 0 -0.09961,-0.28906 c -0.559423,-0.40478 -0.922569,-0.64918 -1.28125,-0.79492 -0.357485,-0.14526 -0.696415,-0.17737 -1.138672,-0.17774 z"
           style="color:#000000;font-style:normal;font-variant:normal;font-weight:normal;font-stretch:normal;font-size:medium;line-height:normal;font-family:sans-serif;font-variant-ligatures:normal;font-variant-position:normal;font-variant-caps:normal;font-variant-numeric:normal;font-variant-alternates:normal;font-variant-east-asian:normal;font-feature-settings:normal;font-variation-settings:normal;text-indent:0;text-align:start;text-decoration:none;text-decoration-line:none;text-decoration-style:solid;text-decoration-color:#000000;letter-spacing:normal;word-spacing:normal;text-transform:none;writing-mode:lr-tb;direction:ltr;text-orientation:mixed;dominant-baseline:auto;baseline-shift:baseline;text-anchor:start;white-space:normal;shape-padding:0;shape-margin:0;inline-size:0;clip-rule:nonzero;display:inline;overflow:visible;visibility:visible;isolation:auto;mix-blend-mode:normal;color-interpolation:sRGB;color-interpolation-filters:linearRGB;solid-color:#000000;solid-opacity:1;vector-effect:none;fill:#50b86b;fill-opacity:1;fill-rule:nonzero;stroke:none;stroke-width:0.4212;stroke-linecap:round;stroke-linejoin:round;stroke-miterlimit:4;stroke-dasharray:none;stroke-dashoffset:0;stroke-opacity:1;color-rendering:auto;image-rendering:auto;shape-rendering:auto;text-rendering:auto;enable-background:accumulate;stop-color:#000000" />
        <path
           id="path1235"
           d="m -52.769531,249.87891 c -0.211941,-0.0568 -0.426481,-0.0464 -0.597657,0.0469 -0.171175,0.0933 -0.278479,0.23416 -0.386718,0.39063 -0.811441,1.17299 -1.046485,2.7961 -0.708985,4.19531 a 0.26460996,0.26460996 0 0 0 0.257813,0.20312 l 1.08789,-0.004 a 0.26460996,0.26460996 0 0 0 0.25586,-0.33008 c -0.33912,-1.33551 -0.03429,-2.55681 0.625,-3.4668 0.08345,-0.11519 0.1259,-0.25941 0.113281,-0.39062 -0.01262,-0.13122 -0.07114,-0.24073 -0.140625,-0.32617 -0.138964,-0.17089 -0.322535,-0.26928 -0.505859,-0.31836 z"
           style="color:#000000;font-style:normal;font-variant:normal;font-weight:normal;font-stretch:normal;font-size:medium;line-height:normal;font-family:sans-serif;font-variant-ligatures:normal;font-variant-position:normal;font-variant-caps:normal;font-variant-numeric:normal;font-variant-alternates:normal;font-variant-east-asian:normal;font-feature-settings:normal;font-variation-settings:normal;text-indent:0;text-align:start;text-decoration:none;text-decoration-line:none;text-decoration-style:solid;text-decoration-color:#000000;letter-spacing:normal;word-spacing:normal;text-transform:none;writing-mode:lr-tb;direction:ltr;text-orientation:mixed;dominant-baseline:auto;baseline-shift:baseline;text-anchor:start;white-space:normal;shape-padding:0;shape-margin:0;inline-size:0;clip-rule:nonzero;display:inline;overflow:visible;visibility:visible;isolation:auto;mix-blend-mode:normal;color-interpolation:sRGB;color-interpolation-filters:linearRGB;solid-color:#000000;solid-opacity:1;vector-effect:none;fill:#9a605a;fill-opacity:1;fill-rule:nonzero;stroke:none;stroke-width:0.4212;stroke-linecap:round;stroke-linejoin:round;stroke-miterlimit:4;stroke-dasharray:none;stroke-dashoffset:0;stroke-opacity:1;color-rendering:auto;image-rendering:auto;shape-rendering:auto;text-rendering:auto;enable-background:accumulate;stop-color:#000000" />
        <path
           d="m -53.083585,249.84628 c -0.06619,0.005 -0.12887,0.0202 -0.189134,0.0413 0.174601,0.0513 0.347665,0.14672 0.480073,0.30954 0.06949,0.0854 0.127939,0.19486 0.14056,0.32608 0.01262,0.13121 -0.02972,0.27549 -0.11317,0.39068 -0.659292,0.90999 -0.964407,2.13146 -0.625288,3.46697 a 0.26460996,0.26460996 0 0 1 -0.255796,0.33021 l -0.588595,0.002 a 0.26460996,0.26460996 0 0 0 0.02997,0.002 l 1.08779,-0.004 a 0.26460996,0.26460996 0 0 0 0.255796,-0.33021 c -0.339119,-1.33551 -0.034,-2.55698 0.625287,-3.46697 0.08345,-0.11519 0.125788,-0.25947 0.11317,-0.39068 -0.01262,-0.13122 -0.07108,-0.24064 -0.140559,-0.32608 -0.138965,-0.17088 -0.322588,-0.26924 -0.505913,-0.31832 -0.105971,-0.0284 -0.212667,-0.0397 -0.314193,-0.0326 z"
           style="color:#000000;font-style:normal;font-variant:normal;font-weight:normal;font-stretch:normal;font-size:medium;line-height:normal;font-family:sans-serif;font-variant-ligatures:normal;font-variant-position:normal;font-variant-caps:normal;font-variant-numeric:normal;font-variant-alternates:normal;font-variant-east-asian:normal;font-feature-settings:normal;font-variation-settings:normal;text-indent:0;text-align:start;text-decoration:none;text-decoration-line:none;text-decoration-style:solid;text-decoration-color:#000000;letter-spacing:normal;word-spacing:normal;text-transform:none;writing-mode:lr-tb;direction:ltr;text-orientation:mixed;dominant-baseline:auto;baseline-shift:baseline;text-anchor:start;white-space:normal;shape-padding:0;shape-margin:0;inline-size:0;clip-rule:nonzero;display:inline;overflow:visible;visibility:visible;isolation:auto;mix-blend-mode:normal;color-interpolation:sRGB;color-interpolation-filters:linearRGB;solid-color:#000000;solid-opacity:1;vector-effect:none;fill:#66342d;fill-opacity:1;fill-rule:nonzero;stroke:none;stroke-width:0.4212;stroke-linecap:round;stroke-linejoin:round;stroke-miterlimit:4;stroke-dasharray:none;stroke-dashoffset:0;stroke-opacity:1;color-rendering:auto;image-rendering:auto;shape-rendering:auto;text-rendering:auto;enable-background:accumulate;stop-color:#000000"
           id="path1352" />
        <path
           id="path1218"
           d="m -57.064453,253.83789 c -1.014984,0.004 -1.753455,0.37501 -2.259766,0.87109 -0.50513,0.49493 -0.785659,1.10211 -0.964843,1.5918 -0.643963,1.5411 -0.574305,3.5848 -0.04688,5.4375 0.528232,1.85551 1.511974,3.52979 2.839844,4.27149 a 0.26460996,0.26460996 0 0 0 0.0078,0.006 c 0.34584,0.17784 0.749417,0.1793 1.142578,0.11524 0.393161,-0.0641 0.78198,-0.20177 1.105469,-0.35352 l -0.0332,0.0137 c 0.854841,-0.26388 1.761315,-0.29946 2.783204,0.002 l -0.03711,-0.0156 c 0.323489,0.15175 0.712308,0.28946 1.105469,0.35352 0.393161,0.0641 0.796738,0.0626 1.142578,-0.11524 a 0.26460996,0.26460996 0 0 0 0.0078,-0.006 c 1.177011,-0.65744 2.081677,-2.05008 2.642578,-3.64844 0.560901,-1.59836 0.773231,-3.41116 0.478515,-4.95313 -0.07553,-0.39149 -0.182859,-0.75963 -0.326171,-1.10351 v -0.002 c -0.179146,-0.49005 -0.460939,-1.0981 -0.966797,-1.59375 -0.506312,-0.49608 -1.244782,-0.86736 -2.259766,-0.87109 a 0.26460996,0.26460996 0 0 0 -0.04492,0.004 c -2.035665,0.34655 -4.20851,0.28641 -6.279297,-0.002 a 0.26460996,0.26460996 0 0 0 -0.03711,-0.002 z"
           style="color:#000000;font-style:normal;font-variant:normal;font-weight:normal;font-stretch:normal;font-size:medium;line-height:normal;font-family:sans-serif;font-variant-ligatures:normal;font-variant-position:normal;font-variant-caps:normal;font-variant-numeric:normal;font-variant-alternates:normal;font-variant-east-asian:normal;font-feature-settings:normal;font-variation-settings:normal;text-indent:0;text-align:start;text-decoration:none;text-decoration-line:none;text-decoration-style:solid;text-decoration-color:#000000;letter-spacing:normal;word-spacing:normal;text-transform:none;writing-mode:lr-tb;direction:ltr;text-orientation:mixed;dominant-baseline:auto;baseline-shift:baseline;text-anchor:start;white-space:normal;shape-padding:0;shape-margin:0;inline-size:0;clip-rule:nonzero;display:inline;overflow:visible;visibility:visible;isolation:auto;mix-blend-mode:normal;color-interpolation:sRGB;color-interpolation-filters:linearRGB;solid-color:#000000;solid-opacity:1;vector-effect:none;fill:#dc1c4b;fill-opacity:1;fill-rule:nonzero;stroke:none;stroke-width:0.4212;stroke-linecap:round;stroke-linejoin:round;stroke-miterlimit:4;stroke-dasharray:none;stroke-dashoffset:0;stroke-opacity:1;color-rendering:auto;image-rendering:auto;shape-rendering:auto;text-rendering:auto;enable-background:accumulate;stop-color:#000000" />
        <path
           transform="matrix(0.26458334,0,0,0.26458334,0,280.06666)"
           d="m -179.37891,-89.650391 -28.30273,28.277344 c -1.16226,1.157405 -1.16226,3.27033 0,4.427735 0.83245,0.831859 1.70593,1.575995 2.60937,2.248046 2.09666,-0.166656 4.30071,0.04886 6.66993,0.746094 1.1978,0.550991 2.61581,1.047124 4.05273,1.28125 1.48596,0.242268 3.01125,0.236604 4.31836,-0.435547 a 1.0001006,1.0001006 0 0 0 0.0293,-0.02344 c 4.44854,-2.484813 7.86638,-7.748017 9.98633,-13.789063 2.11994,-6.041045 2.92248,-12.892785 1.80859,-18.720703 -0.27409,-1.420688 -0.66219,-2.756793 -1.17188,-4.011719 z"
           style="color:#000000;font-style:normal;font-variant:normal;font-weight:normal;font-stretch:normal;font-size:medium;line-height:normal;font-family:sans-serif;font-variant-ligatures:normal;font-variant-position:normal;font-variant-caps:normal;font-variant-numeric:normal;font-variant-alternates:normal;font-variant-east-asian:normal;font-feature-settings:normal;font-variation-settings:normal;text-indent:0;text-align:start;text-decoration:none;text-decoration-line:none;text-decoration-style:solid;text-decoration-color:#000000;letter-spacing:normal;word-spacing:normal;text-transform:none;writing-mode:lr-tb;direction:ltr;text-orientation:mixed;dominant-baseline:auto;baseline-shift:baseline;text-anchor:start;white-space:normal;shape-padding:0;shape-margin:0;inline-size:0;clip-rule:nonzero;display:inline;overflow:visible;visibility:visible;isolation:auto;mix-blend-mode:normal;color-interpolation:sRGB;color-interpolation-filters:linearRGB;solid-color:#000000;solid-opacity:1;vector-effect:none;fill:#b01d47;fill-opacity:1;fill-rule:nonzero;stroke:none;stroke-width:1.59193;stroke-linecap:round;stroke-linejoin:round;stroke-miterlimit:4;stroke-dasharray:none;stroke-dashoffset:0;stroke-opacity:1;color-rendering:auto;image-rendering:auto;shape-rendering:auto;text-rendering:auto;enable-background:accumulate;stop-color:#000000"
           id="path1345" />
        <path
           id="path1328"
           d="m -46.138672,255.91992 a 0.26460945,0.26460945 0 0 0 -0.177734,0.0781 l -8.236328,8.22851 a 0.26460945,0.26460945 0 0 0 0,0.375 c 2.352326,2.35065 5.935576,2.04315 8.294922,-0.31445 2.359353,-2.3576 2.666795,-5.93844 0.314453,-8.28906 a 0.26460945,0.26460945 0 0 0 -0.195313,-0.0781 z"
           style="color:#000000;font-style:normal;font-variant:normal;font-weight:normal;font-stretch:normal;font-size:medium;line-height:normal;font-family:sans-serif;font-variant-ligatures:normal;font-variant-position:normal;font-variant-caps:normal;font-variant-numeric:normal;font-variant-alternates:normal;font-variant-east-asian:normal;font-feature-settings:normal;font-variation-settings:normal;text-indent:0;text-align:start;text-decoration:none;text-decoration-line:none;text-decoration-style:solid;text-decoration-color:#000000;letter-spacing:normal;word-spacing:normal;text-transform:none;writing-mode:lr-tb;direction:ltr;text-orientation:mixed;dominant-baseline:auto;baseline-shift:baseline;text-anchor:start;white-space:normal;shape-padding:0;shape-margin:0;inline-size:0;clip-rule:nonzero;display:inline;overflow:visible;visibility:visible;isolation:auto;mix-blend-mode:normal;color-interpolation:sRGB;color-interpolation-filters:linearRGB;solid-color:#000000;solid-opacity:1;vector-effect:none;fill:#dc1c4b;fill-opacity:1;fill-rule:nonzero;stroke:none;stroke-width:0.421199;stroke-linecap:round;stroke-linejoin:round;stroke-miterlimit:4;stroke-dasharray:none;stroke-dashoffset:0;stroke-opacity:1;color-rendering:auto;image-rendering:auto;shape-rendering:auto;text-rendering:auto;enable-background:accumulate;stop-color:#000000" />
        <path
           id="path1311"
           d="m -47.091797,256.87305 a 0.26460945,0.26460945 0 0 0 -0.177734,0.0762 l -6.400391,6.39648 a 0.26460945,0.26460945 0 0 0 0,0.37305 c 1.790464,1.78913 4.512342,1.53907 6.302734,-0.25 0.895197,-0.89453 1.461433,-2.06006 1.583985,-3.23828 0.122551,-1.17822 -0.209895,-2.37853 -1.113281,-3.28125 a 0.26460945,0.26460945 0 0 0 -0.195313,-0.0762 z"
           style="color:#000000;font-style:normal;font-variant:normal;font-weight:normal;font-stretch:normal;font-size:medium;line-height:normal;font-family:sans-serif;font-variant-ligatures:normal;font-variant-position:normal;font-variant-caps:normal;font-variant-numeric:normal;font-variant-alternates:normal;font-variant-east-asian:normal;font-feature-settings:normal;font-variation-settings:normal;text-indent:0;text-align:start;text-decoration:none;text-decoration-line:none;text-decoration-style:solid;text-decoration-color:#000000;letter-spacing:normal;word-spacing:normal;text-transform:none;writing-mode:lr-tb;direction:ltr;text-orientation:mixed;dominant-baseline:auto;baseline-shift:baseline;text-anchor:start;white-space:normal;shape-padding:0;shape-margin:0;inline-size:0;clip-rule:nonzero;display:inline;overflow:visible;visibility:visible;isolation:auto;mix-blend-mode:normal;color-interpolation:sRGB;color-interpolation-filters:linearRGB;solid-color:#000000;solid-opacity:1;vector-effect:none;fill:#fff79c;fill-opacity:1;fill-rule:nonzero;stroke:none;stroke-width:0.421199;stroke-linecap:round;stroke-linejoin:round;stroke-miterlimit:4;stroke-dasharray:none;stroke-dashoffset:0;stroke-opacity:1;color-rendering:auto;image-rendering:auto;shape-rendering:auto;text-rendering:auto;enable-background:accumulate;stop-color:#000000" />
        <path
           id="path1287"
           d="m -49.921875,261.13086 a 0.26460996,0.26460996 0 0 0 -0.224609,0.17969 l -0.326172,0.96093 a 0.26460996,0.26460996 0 0 0 -0.0039,0.15235 c 0.117459,0.43836 0.575308,0.70341 1.013671,0.58594 0.438421,-0.11741 0.701445,-0.57533 0.583985,-1.01368 a 0.26460996,0.26460996 0 0 0 -0.08008,-0.13086 l -0.763672,-0.66992 a 0.26460996,0.26460996 0 0 0 -0.199219,-0.0645 z"
           style="color:#000000;font-style:normal;font-variant:normal;font-weight:normal;font-stretch:normal;font-size:medium;line-height:normal;font-family:sans-serif;font-variant-ligatures:normal;font-variant-position:normal;font-variant-caps:normal;font-variant-numeric:normal;font-variant-alternates:normal;font-variant-east-asian:normal;font-feature-settings:normal;font-variation-settings:normal;text-indent:0;text-align:start;text-decoration:none;text-decoration-line:none;text-decoration-style:solid;text-decoration-color:#000000;letter-spacing:normal;word-spacing:normal;text-transform:none;writing-mode:lr-tb;direction:ltr;text-orientation:mixed;dominant-baseline:auto;baseline-shift:baseline;text-anchor:start;white-space:normal;shape-padding:0;shape-margin:0;inline-size:0;clip-rule:nonzero;display:inline;overflow:visible;visibility:visible;isolation:auto;mix-blend-mode:normal;color-interpolation:sRGB;color-interpolation-filters:linearRGB;solid-color:#000000;solid-opacity:1;vector-effect:none;fill:#fec872;fill-opacity:1;fill-rule:nonzero;stroke:none;stroke-width:0.4212;stroke-linecap:round;stroke-linejoin:round;stroke-miterlimit:4;stroke-dasharray:none;stroke-dashoffset:0;stroke-opacity:1;color-rendering:auto;image-rendering:auto;shape-rendering:auto;text-rendering:auto;enable-background:accumulate;stop-color:#000000" />
        <path
           id="path1277"
           d="m -48.21875,259.99219 a 0.26460996,0.26460996 0 0 0 -0.06836,0.0137 l -0.960938,0.32617 a 0.26460996,0.26460996 0 0 0 -0.113281,0.42383 l 0.667969,0.76367 a 0.26460996,0.26460996 0 0 0 0.130859,0.0801 c 0.438311,0.11737 0.896217,-0.14755 1.013672,-0.58594 0.117462,-0.43835 -0.147576,-0.89427 -0.585938,-1.01172 a 0.26460996,0.26460996 0 0 0 -0.08398,-0.01 z"
           style="color:#000000;font-style:normal;font-variant:normal;font-weight:normal;font-stretch:normal;font-size:medium;line-height:normal;font-family:sans-serif;font-variant-ligatures:normal;font-variant-position:normal;font-variant-caps:normal;font-variant-numeric:normal;font-variant-alternates:normal;font-variant-east-asian:normal;font-feature-settings:normal;font-variation-settings:normal;text-indent:0;text-align:start;text-decoration:none;text-decoration-line:none;text-decoration-style:solid;text-decoration-color:#000000;letter-spacing:normal;word-spacing:normal;text-transform:none;writing-mode:lr-tb;direction:ltr;text-orientation:mixed;dominant-baseline:auto;baseline-shift:baseline;text-anchor:start;white-space:normal;shape-padding:0;shape-margin:0;inline-size:0;clip-rule:nonzero;display:inline;overflow:visible;visibility:visible;isolation:auto;mix-blend-mode:normal;color-interpolation:sRGB;color-interpolation-filters:linearRGB;solid-color:#000000;solid-opacity:1;vector-effect:none;fill:#fec872;fill-opacity:1;fill-rule:nonzero;stroke:none;stroke-width:0.4212;stroke-linecap:round;stroke-linejoin:round;stroke-miterlimit:4;stroke-dasharray:none;stroke-dashoffset:0;stroke-opacity:1;color-rendering:auto;image-rendering:auto;shape-rendering:auto;text-rendering:auto;enable-background:accumulate;stop-color:#000000" />
      </g>
      <path
         sodipodi:nodetypes="csssccccscscccccccscsccccccccccccsccccsccccccccssscssscscsccscccccccccsccccccsccccccsscsscccscccccccccccccccccccccsccccccccccccccccccccc"
         d="m -58.042455,250.51796 c -0.266581,0.11393 -0.494035,0.23744 -0.660424,0.38085 -0.08319,0.0717 -0.156405,0.14623 -0.201022,0.26562 -0.04462,0.1194 -0.01699,0.30573 0.07803,0.40825 0.900351,0.97133 1.757114,1.30216 2.538862,1.31464 0.629825,0.0101 1.185291,-0.16289 1.708423,-0.31264 -0.05325,0.49237 -0.03632,0.99437 0.05116,1.48777 -0.839478,-0.0314 -1.677832,-0.10769 -2.51845,-0.22325 -1.03333,0.003 -1.771846,0.37415 -2.278158,0.87023 -0.505129,0.49494 -0.785614,1.10195 -0.964798,1.59164 -0.643964,1.5411 -0.57445,3.58469 -0.04703,5.43739 0.528233,1.85551 1.511753,3.52988 2.843499,4.27468 0.349713,0.18094 0.753279,0.1824 1.146439,0.11834 0.393163,-0.0641 0.782386,-0.20172 1.105877,-0.35347 0.132013,-0.0621 0.188462,-0.21977 0.126608,-0.35192 -0.06214,-0.13201 -0.219255,-0.18846 -0.351401,-0.1266 -0.284861,0.13363 -0.635982,0.25492 -0.964798,0.3085 -0.327252,0.0533 -0.624033,0.0331 -0.812355,-0.0625 -1.120342,-0.62837 -2.084174,-2.187 -2.586406,-3.95118 -0.502867,-1.76642 -0.546142,-3.72639 0.03153,-5.10279 0.167677,-0.45822 0.423066,-0.99303 0.843876,-1.40534 0.420428,-0.41194 0.99904,-0.71882 1.889548,-0.71882 0.197048,0.0271 0.395026,0.0505 0.592987,0.0734 l 1.377693,1.06634 c 0.72848,0.39174 1.497859,0.4754 2.270662,0.22557 5.3e-4,-6.6e-4 0.0013,-5.6e-4 0.0021,-0.002 l 1.033013,-0.34417 c 0.137739,-0.0468 0.211762,-0.19579 0.165881,-0.33383 -0.04595,-0.13851 -0.195231,-0.21365 -0.333828,-0.16795 l -1.029396,0.34365 c -0.644379,0.20831 -1.231244,0.14297 -1.83193,-0.1757 l -0.664559,-0.51521 c 1.593085,0.12197 3.215156,0.0906 4.775939,-0.17053 0.89109,0.003 1.469514,0.30651 1.890323,0.71882 0.42081,0.41231 0.676199,0.94712 0.843876,1.40534 0.116308,0.27712 0.203292,0.57699 0.270785,0.88961 l -6.85178,6.84661 c -0.105022,0.10401 -0.10595,0.27274 -0.0021,0.37568 2.350709,2.34903 5.935413,2.04116 8.296134,-0.31781 2.360719,-2.35898 2.666984,-5.93938 0.316259,-8.28838 -0.102991,-0.10362 -0.271626,-0.10269 -0.375687,0.002 l -0.942578,0.94207 c -0.06062,-0.21944 -0.132096,-0.4323 -0.21704,-0.63614 v -0.002 c -0.179147,-0.49005 -0.46101,-1.09806 -0.966867,-1.59371 -0.506312,-0.49608 -1.244828,-0.86753 -2.282031,-0.86919 -0.72344,0.12144 -1.441765,0.18947 -2.16576,0.21962 -0.283779,-1.27026 0.01106,-2.25587 0.655259,-3.14503 0.08345,-0.11518 0.125788,-0.25946 0.11317,-0.39067 -0.01262,-0.13121 -0.07108,-0.24116 -0.14056,-0.3266 -0.138964,-0.17088 -0.322588,-0.26924 -0.505912,-0.31832 -0.105971,-0.0284 -0.212151,-0.0397 -0.313677,-0.0326 -0.101523,0.007 -0.198115,0.0329 -0.283702,0.0796 -0.171178,0.0933 -0.278302,0.23421 -0.386541,0.39068 -0.129156,0.1867 -0.242586,0.38274 -0.342614,0.58497 -0.413536,-0.29219 -0.721352,-0.48778 -1.019058,-0.60874 -0.357484,-0.14526 -0.696177,-0.17725 -1.1405,-0.17725 -0.575289,-0.005 -1.254914,0.17464 -1.786972,0.40204 z m 4.609539,3.55637 c -0.183004,0.003 -0.365958,0.005 -0.54932,0.003 -0.242096,-1.20408 -0.01627,-2.47802 0.662491,-3.45922 0.09368,-0.13543 0.164359,-0.20531 0.241847,-0.239 0.182854,-0.10514 0.496705,-0.0243 0.409504,0.33726 -0.3018,0.63178 -1.039291,1.99305 -0.764522,3.35837 z m -2.201415,-2.9099 c -0.52551,-0.0611 -1.04961,-0.0289 -1.537375,0.2403 -0.128476,0.07 -0.17568,0.2308 -0.10542,0.35915 0.07074,0.12893 0.233452,0.17578 0.361735,0.10387 0.645676,-0.3564 1.516373,-0.12989 2.438871,0.1 -0.620651,0.19395 -1.208214,0.39938 -1.802217,0.3899 -0.619868,-0.01 -1.277374,-0.26262 -2.060855,-1.06815 0.09457,-0.078 0.275732,-0.1857 0.503843,-0.28319 0.472093,-0.20177 1.126649,-0.36605 1.577165,-0.36122 0.421371,1.4e-4 0.663017,0.024 0.944645,0.1385 0.250955,0.10197 0.554678,0.29454 1.001234,0.62941 -0.431118,-0.0809 -0.874507,-0.19654 -1.321626,-0.24856 z m -3.18792,4.96301 c -0.136945,0.22972 -0.245343,0.50997 -0.320394,0.85731 -0.03098,0.14301 0.06001,0.28401 0.203089,0.31471 0.142523,0.031 0.283294,-0.0591 0.314708,-0.20154 0.06533,-0.30237 0.155263,-0.52708 0.257866,-0.69918 0.07516,-0.12569 0.03393,-0.28852 -0.09199,-0.36329 -0.03732,-0.0223 -0.07956,-0.0351 -0.134099,-0.0372 -0.101042,0.003 -0.183192,0.0518 -0.229185,0.12919 z m 12.650907,0.46974 c 1.9343,2.14286 1.66033,5.19921 -0.458369,7.31634 -2.118701,2.11713 -5.179169,2.39282 -7.323585,0.45992 l 0.476975,-0.47697 c 1.787059,1.58697 4.379439,1.30007 6.108153,-0.42736 0.895866,-0.8952 1.463381,-2.06176 1.585949,-3.24012 0.114083,-1.09683 -0.166203,-2.21189 -0.933275,-3.08818 z m -0.925007,0.92449 c 0.649317,0.75584 0.887582,1.69497 0.787548,2.65668 -0.10877,1.0457 -0.62258,2.10733 -1.432988,2.91714 -1.556465,1.55531 -3.778285,1.81186 -5.358329,0.42529 z m -12.290206,0.47852 c -0.171601,0.80587 -0.162613,1.86312 0.118854,2.7559 0.04423,0.13929 0.193003,0.21633 0.332279,0.17209 0.139073,-0.0444 0.215855,-0.19316 0.171567,-0.33228 -0.245224,-0.77782 -0.255619,-1.78079 -0.105421,-2.48616 0.02959,-0.14296 -0.06222,-0.28287 -0.237712,-0.31548 -0.152792,0.002 -0.254296,0.0883 -0.279567,0.20593 z m 11.167793,1.99213 v 5.3e-4 c -0.02323,0.001 -0.04616,0.006 -0.06821,0.0134 l -0.961183,0.32608 c -0.177189,0.0613 -0.236218,0.28229 -0.113171,0.42375 l 0.668177,0.76377 c 0.03472,0.039 0.08021,0.0669 0.130741,0.0801 0.438311,0.11737 0.895919,-0.14762 1.013375,-0.58601 0.117462,-0.43835 -0.147132,-0.89386 -0.585494,-1.01131 -0.02734,-0.008 -0.05578,-0.0114 -0.08423,-0.0103 z m -0.02946,0.56069 c 0.129323,0.0604 0.226158,0.18057 0.187587,0.32452 -0.03875,0.14463 -0.183083,0.20037 -0.32608,0.18707 l -0.316259,-0.35915 z m -1.898075,0.75809 -0.326594,0.96066 c -0.01614,0.0494 -0.01741,0.10238 -0.0036,0.15245 0.117459,0.43836 0.575011,0.70348 1.013373,0.58601 0.438422,-0.11741 0.701921,-0.57554 0.584462,-1.01389 -0.0132,-0.0505 -0.04108,-0.096 -0.0801,-0.13074 l -0.763776,-0.66973 c -0.05084,-0.0447 -0.116861,-0.0682 -0.191979,-0.0651 -0.111135,0.0111 -0.198929,0.0815 -0.231769,0.18035 z m 0.373104,0.54467 0.359151,0.31626 c 0.01328,0.14293 -0.04302,0.28788 -0.187584,0.32659 -0.14396,0.0386 -0.263581,-0.0583 -0.324012,-0.18758 z"
         style="color:#000000;font-style:normal;font-variant:normal;font-weight:normal;font-stretch:normal;font-size:medium;line-height:normal;font-family:sans-serif;font-variant-ligatures:normal;font-variant-position:normal;font-variant-caps:normal;font-variant-numeric:normal;font-variant-alternates:normal;font-variant-east-asian:normal;font-feature-settings:normal;font-variation-settings:normal;text-indent:0;text-align:start;text-decoration:none;text-decoration-line:none;text-decoration-style:solid;text-decoration-color:#000000;letter-spacing:normal;word-spacing:normal;text-transform:none;writing-mode:lr-tb;direction:ltr;text-orientation:mixed;dominant-baseline:auto;baseline-shift:baseline;text-anchor:start;white-space:normal;shape-padding:0;shape-margin:0;inline-size:0;clip-rule:nonzero;display:inline;overflow:visible;visibility:visible;isolation:auto;mix-blend-mode:normal;color-interpolation:sRGB;color-interpolation-filters:linearRGB;solid-color:#000000;solid-opacity:1;vector-effect:none;fill:#000000;fill-opacity:1;fill-rule:nonzero;stroke:none;stroke-width:0.4212;stroke-linecap:round;stroke-linejoin:round;stroke-miterlimit:4;stroke-dasharray:none;stroke-dashoffset:0;stroke-opacity:1;color-rendering:auto;image-rendering:auto;shape-rendering:auto;text-rendering:auto;enable-background:accumulate;stop-color:#000000"
         id="path1210" />
    </g>
  </g>
</svg>
