<?xml version="1.0" encoding="UTF-8" standalone="no"?><svg viewBox="0 0 64 64" xmlns="http://www.w3.org/2000/svg" xmlns:xlink="http://www.w3.org/1999/xlink"><style>:root>svg{display:none}:root>svg:target{display:block}</style><svg viewBox="0 0 22.578 22.578" id="apple_fruit_food_icon_218380" xmlns="http://www.w3.org/2000/svg"><g stroke-width=".796" color="#000" font-weight="400" font-family="sans-serif"><path d="M6.616 1.344c-.72-.006-1.574.223-2.243.508-.335.143-.618.296-.827.476a.799.799 0 00-.255.334.55.55 0 00.1.513C4.524 4.395 5.598 4.81 6.58 4.826c.982.016 1.845-.332 2.628-.525a.332.332 0 00.238-.228l.341-1.144a.332.332 0 00-.125-.363c-.703-.508-1.159-.815-1.61-.998-.449-.183-.874-.223-1.43-.224z" style="line-height:normal;font-variant-ligatures:normal;font-variant-position:normal;font-variant-caps:normal;font-variant-numeric:normal;font-variant-alternates:normal;font-variant-east-asian:normal;font-feature-settings:normal;font-variation-settings:normal;text-indent:0;text-align:start;text-decoration-line:none;text-decoration-style:solid;text-decoration-color:#000;text-transform:none;text-orientation:mixed;white-space:normal;shape-padding:0;shape-margin:0;inline-size:0;isolation:auto;mix-blend-mode:normal;solid-color:#000;solid-opacity:1" overflow="visible" fill="#50b86b"/><path d="M10.999 1.047c-.267-.07-.536-.058-.751.06-.215.117-.35.294-.486.49-1.02 1.474-1.315 3.513-.89 5.27a.332.332 0 00.323.256l1.367-.005a.332.332 0 00.321-.415c-.426-1.678-.043-3.212.785-4.355a.739.739 0 00.143-.49.766.766 0 00-.177-.41 1.21 1.21 0 00-.635-.4z" style="line-height:normal;font-variant-ligatures:normal;font-variant-position:normal;font-variant-caps:normal;font-variant-numeric:normal;font-variant-alternates:normal;font-variant-east-asian:normal;font-feature-settings:normal;font-variation-settings:normal;text-indent:0;text-align:start;text-decoration-line:none;text-decoration-style:solid;text-decoration-color:#000;text-transform:none;text-orientation:mixed;white-space:normal;shape-padding:0;shape-margin:0;inline-size:0;isolation:auto;mix-blend-mode:normal;solid-color:#000;solid-opacity:1" overflow="visible" fill="#9a605a"/><path d="M10.604 1.006a.927.927 0 00-.238.052c.22.065.437.185.604.39.087.106.16.244.176.409a.739.739 0 01-.142.49c-.828 1.144-1.212 2.679-.786 4.356a.332.332 0 01-.321.415l-.74.003a.332.332 0 00.038.002l1.367-.005a.332.332 0 00.321-.415c-.426-1.677-.043-3.212.786-4.355a.739.739 0 00.142-.491.766.766 0 00-.177-.41 1.21 1.21 0 00-.635-.4 1.207 1.207 0 00-.395-.04z" style="line-height:normal;font-variant-ligatures:normal;font-variant-position:normal;font-variant-caps:normal;font-variant-numeric:normal;font-variant-alternates:normal;font-variant-east-asian:normal;font-feature-settings:normal;font-variation-settings:normal;text-indent:0;text-align:start;text-decoration-line:none;text-decoration-style:solid;text-decoration-color:#000;text-transform:none;text-orientation:mixed;white-space:normal;shape-padding:0;shape-margin:0;inline-size:0;isolation:auto;mix-blend-mode:normal;solid-color:#000;solid-opacity:1" overflow="visible" fill="#66342d"/><path d="M5.603 6.021c-1.275.005-2.203.471-2.84 1.095-.634.621-.986 1.384-1.211 2-.81 1.936-.722 4.503-.06 6.83.664 2.332 1.9 4.435 3.568 5.367a.332.332 0 00.01.008c.435.223.942.225 1.436.144.494-.08.982-.253 1.388-.444l-.041.018c1.074-.332 2.213-.377 3.496.002l-.046-.02c.406.191.895.364 1.389.445.494.08 1 .078 1.435-.145a.332.332 0 00.01-.008c1.479-.826 2.615-2.575 3.32-4.583.705-2.008.971-4.286.601-6.223a7.08 7.08 0 00-.41-1.387v-.002c-.225-.616-.579-1.38-1.214-2.002-.636-.624-1.564-1.09-2.84-1.095a.332.332 0 00-.056.005c-2.557.436-5.287.36-7.889-.002a.332.332 0 00-.046-.003z" style="line-height:normal;font-variant-ligatures:normal;font-variant-position:normal;font-variant-caps:normal;font-variant-numeric:normal;font-variant-alternates:normal;font-variant-east-asian:normal;font-feature-settings:normal;font-variation-settings:normal;text-indent:0;text-align:start;text-decoration-line:none;text-decoration-style:solid;text-decoration-color:#000;text-transform:none;text-orientation:mixed;white-space:normal;shape-padding:0;shape-margin:0;inline-size:0;isolation:auto;mix-blend-mode:normal;solid-color:#000;solid-opacity:1" overflow="visible" fill="#dc1c4b"/><path d="M17.668 9.173l-9.408 9.4c-.386.384-.386 1.087 0 1.471.277.277.567.524.868.748a6.068 6.068 0 012.217.248c.398.183.87.348 1.347.426.494.08 1 .078 1.435-.145a.332.332 0 00.01-.008c1.479-.826 2.615-2.576 3.32-4.584.704-2.008.971-4.285.6-6.222a7.114 7.114 0 00-.389-1.334z" style="line-height:normal;font-variant-ligatures:normal;font-variant-position:normal;font-variant-caps:normal;font-variant-numeric:normal;font-variant-alternates:normal;font-variant-east-asian:normal;font-feature-settings:normal;font-variation-settings:normal;text-indent:0;text-align:start;text-decoration-line:none;text-decoration-style:solid;text-decoration-color:#000;text-transform:none;text-orientation:mixed;white-space:normal;shape-padding:0;shape-margin:0;inline-size:0;isolation:auto;mix-blend-mode:normal;solid-color:#000;solid-opacity:1" overflow="visible" fill="#b01d47"/><path d="M19.33 8.637a.332.332 0 00-.224.098L8.758 19.073a.332.332 0 000 .47c2.956 2.954 7.457 2.568 10.421-.394 2.965-2.962 3.35-7.46.395-10.414a.332.332 0 00-.245-.098z" style="line-height:normal;font-variant-ligatures:normal;font-variant-position:normal;font-variant-caps:normal;font-variant-numeric:normal;font-variant-alternates:normal;font-variant-east-asian:normal;font-feature-settings:normal;font-variation-settings:normal;text-indent:0;text-align:start;text-decoration-line:none;text-decoration-style:solid;text-decoration-color:#000;text-transform:none;text-orientation:mixed;white-space:normal;shape-padding:0;shape-margin:0;inline-size:0;isolation:auto;mix-blend-mode:normal;solid-color:#000;solid-opacity:1" overflow="visible" fill="#dc1c4b"/><path d="M18.132 9.834a.332.332 0 00-.224.096l-8.04 8.036a.332.332 0 000 .469c2.249 2.248 5.668 1.933 7.918-.314 1.124-1.124 1.836-2.588 1.99-4.069.154-1.48-.264-2.988-1.399-4.122a.332.332 0 00-.245-.096z" style="line-height:normal;font-variant-ligatures:normal;font-variant-position:normal;font-variant-caps:normal;font-variant-numeric:normal;font-variant-alternates:normal;font-variant-east-asian:normal;font-feature-settings:normal;font-variation-settings:normal;text-indent:0;text-align:start;text-decoration-line:none;text-decoration-style:solid;text-decoration-color:#000;text-transform:none;text-orientation:mixed;white-space:normal;shape-padding:0;shape-margin:0;inline-size:0;isolation:auto;mix-blend-mode:normal;solid-color:#000;solid-opacity:1" overflow="visible" fill="#fff79c"/><path d="M14.576 15.184a.332.332 0 00-.282.225l-.41 1.208a.332.332 0 00-.005.191c.148.55.723.884 1.274.736.55-.147.881-.723.733-1.273a.332.332 0 00-.1-.165l-.96-.841a.332.332 0 00-.25-.081zM16.716 13.753a.332.332 0 00-.086.017l-1.207.41a.332.332 0 00-.143.533l.84.959a.332.332 0 00.164.1 1.046 1.046 0 001.273-.736 1.043 1.043 0 00-.736-1.27.332.332 0 00-.105-.013z" style="line-height:normal;font-variant-ligatures:normal;font-variant-position:normal;font-variant-caps:normal;font-variant-numeric:normal;font-variant-alternates:normal;font-variant-east-asian:normal;font-feature-settings:normal;font-variation-settings:normal;text-indent:0;text-align:start;text-decoration-line:none;text-decoration-style:solid;text-decoration-color:#000;text-transform:none;text-orientation:mixed;white-space:normal;shape-padding:0;shape-margin:0;inline-size:0;isolation:auto;mix-blend-mode:normal;solid-color:#000;solid-opacity:1" overflow="visible" fill="#fec872"/><path d="M4.374 1.85c-.335.143-.62.299-.83.479a.794.794 0 00-.252.333.548.548 0 00.098.513c1.13 1.22 2.207 1.636 3.19 1.652.79.013 1.489-.205 2.146-.393a6.633 6.633 0 00.064 1.87 31.991 31.991 0 01-3.164-.281c-1.298.004-2.226.47-2.862 1.093-.635.622-.987 1.385-1.212 2-.81 1.936-.722 4.503-.06 6.831.664 2.331 1.9 4.435 3.573 5.37.44.228.946.23 1.44.149.494-.08.983-.253 1.39-.444a.333.333 0 00-.283-.601c-.358.168-.799.32-1.212.387-.41.067-.784.042-1.02-.078-1.408-.79-2.619-2.748-3.25-4.964-.632-2.22-.686-4.682.04-6.411.21-.576.531-1.248 1.06-1.766.528-.517 1.255-.903 2.374-.903.248.034.496.064.745.093l1.73 1.34c.916.491 1.883.597 2.853.283l.003-.003 1.298-.432a.332.332 0 00-.211-.63l-1.293.431c-.81.262-1.547.18-2.302-.22L7.592 6.9c2.002.153 4.04.114 6-.214 1.12.004 1.847.385 2.375.903.529.518.85 1.19 1.06 1.766.147.348.256.724.34 1.117L8.76 19.074a.332.332 0 00-.003.472c2.953 2.95 7.457 2.564 10.423-.4 2.965-2.963 3.35-7.461.397-10.412a.333.333 0 00-.472.002L17.921 9.92a6.75 6.75 0 00-.273-.8v-.002c-.225-.616-.58-1.38-1.215-2.002-.636-.624-1.564-1.09-2.867-1.092-.908.152-1.81.238-2.72.276-.357-1.596.013-2.835.823-3.952a.739.739 0 00.142-.49.768.768 0 00-.177-.41 1.21 1.21 0 00-.635-.4 1.203 1.203 0 00-.394-.042.865.865 0 00-.357.1c-.215.118-.35.295-.485.491-.163.235-.305.481-.43.735-.52-.367-.907-.613-1.281-.765-.45-.182-.875-.222-1.433-.222-.723-.007-1.577.219-2.245.505zm5.791 4.468c-.23.004-.46.007-.69.004-.304-1.513-.02-3.113.832-4.346.118-.17.207-.258.304-.3.23-.132.624-.03.515.424-.38.793-1.306 2.503-.96 4.219zM7.4 2.662c-.66-.076-1.318-.036-1.931.302a.332.332 0 10.322.582c.811-.448 1.905-.163 3.064.126-.78.243-1.518.501-2.264.49C5.81 4.149 4.985 3.832 4 2.82c.12-.098.347-.234.634-.356.593-.254 1.415-.46 1.981-.454.53 0 .833.03 1.187.174.315.128.697.37 1.258.79-.542-.1-1.099-.246-1.66-.312zM3.394 8.898c-.172.288-.308.64-.402 1.077a.332.332 0 00.65.142 2.89 2.89 0 01.324-.879.332.332 0 10-.572-.34zm15.894.59c2.43 2.692 2.086 6.532-.576 9.192s-6.507 3.006-9.2.577l.599-.599c2.245 1.994 5.502 1.633 7.673-.537 1.126-1.124 1.839-2.59 1.993-4.07.143-1.378-.209-2.78-1.173-3.88zm-1.162 1.161c.816.95 1.115 2.13.99 3.338-.137 1.314-.783 2.647-1.8 3.665-1.956 1.954-4.748 2.276-6.733.534zm-15.44.601c-.216 1.013-.205 2.341.149 3.463a.332.332 0 10.633-.201c-.308-.978-.321-2.238-.133-3.124.037-.18-.078-.355-.298-.396-.192.002-.32.11-.352.258zm14.03 2.503a.313.313 0 00-.086.018l-1.207.41a.332.332 0 00-.143.532l.84.96c.043.048.1.083.164.1a1.045 1.045 0 001.273-.736 1.042 1.042 0 00-.735-1.27.331.331 0 00-.106-.014zm-.037.705c.162.076.284.226.235.407-.048.182-.23.252-.41.235l-.397-.45zm-2.385.952l-.41 1.207a.332.332 0 00-.005.191c.148.551.723.884 1.273.737.551-.148.882-.723.735-1.274a.333.333 0 00-.1-.164l-.96-.842a.337.337 0 00-.242-.082.335.335 0 00-.29.227zm.469.684l.451.398c.017.18-.054.361-.236.41-.18.048-.33-.073-.407-.236z" style="line-height:normal;font-variant-ligatures:normal;font-variant-position:normal;font-variant-caps:normal;font-variant-numeric:normal;font-variant-alternates:normal;font-variant-east-asian:normal;font-feature-settings:normal;font-variation-settings:normal;text-indent:0;text-align:start;text-decoration-line:none;text-decoration-style:solid;text-decoration-color:#000;text-transform:none;text-orientation:mixed;white-space:normal;shape-padding:0;shape-margin:0;inline-size:0;isolation:auto;mix-blend-mode:normal;solid-color:#000;solid-opacity:1" overflow="visible"/></g></svg><svg viewBox="0 0 64 64" id="snail_slug_slow_shell_animals_icon_209423" xmlns="http://www.w3.org/2000/svg"><defs><style>.bcls-1{fill:#ebafa5}.bcls-2{fill:#756d78}.bcls-3{fill:#655e66}.bcls-4{fill:#f1ccc6}</style></defs><g id="bSlug"><path class="bcls-1" d="M52.22 16.8A3.27 3.27 0 0049 20v10.79a1 1 0 002 0V20a1.23 1.23 0 011.24-1.24 1 1 0 000-2z" id="bpath43442"/><path class="bcls-1" d="M52.08 9.85a7.25 7.25 0 00-7.24 7.24v14.17a1 1 0 102 0V17.09a5.22 5.22 0 015.24-5.24 1 1 0 000-2z" id="bpath45171"/><path class="bcls-2" d="M32.16 44.93a15.3 15.3 0 01-12.4 3.55c-4.35-.65-9-3.5-9.44-9.24-1-13.4 7.79-19.71 17.39-19.71 8 0 14.7 7.69 16.76 15l4.32 9.68L45 48.32z" id="bpath36063-6"/><path class="bcls-3" d="M27.1 27.14a10.11 10.11 0 00-6.29 2.19 8 8 0 00-3 6.29 6.28 6.28 0 00.69 3c.8 1.53 2.68 3 5.89 2.88a4.73 4.73 0 003.07-1.15 4.13 4.13 0 001.21-2.27 6.79 6.79 0 00-.09-2.91 1 1 0 10-1.93.52 5.4 5.4 0 01.06 2 2.13 2.13 0 01-.61 1.2 2.62 2.62 0 01-1.8.61c-2.62.12-3.51-.83-4-1.81a4.46 4.46 0 01-.47-2 .13.13 0 000-.06 5.88 5.88 0 012.3-4.74 8.56 8.56 0 0112.07 1.72 8.93 8.93 0 01.68 8.3 10.41 10.41 0 01-2.66 4 1 1 0 001.37 1.46 12.45 12.45 0 003.17-4.8 11 11 0 00-.91-10.11 10.33 10.33 0 00-8.75-4.32z" id="bpath382132"/><path class="bcls-2" d="M54.11 14.92A2.89 2.89 0 1057 17.8a2.9 2.9 0 00-2.89-2.88z" id="bpath389168"/><path class="bcls-2" d="M54 8a2.89 2.89 0 102.89 2.89A2.9 2.9 0 0054 8z" id="bpath389147"/><path class="bcls-4" d="M48.05 28.49a3.58 3.58 0 00-3.59 3.58V41a3.93 3.93 0 01-3.93 3.93h-8.37a15.33 15.33 0 01-12.4 3.55 12.27 12.27 0 01-6.3-2.82 10.69 10.69 0 00-5.33 6.2c-.57 1.69.93 3.14 2.72 3.14h29.68a14 14 0 0014-14v-6a6.52 6.52 0 00-6.48-6.51z" id="brect32302-0"/></g></svg><svg viewBox="0 0 64 64" id="snail_slug_slow_shell_animals_icon_209528" xmlns="http://www.w3.org/2000/svg"><path d="M53.11 15.92a2.88 2.88 0 00-2.74 2A3.24 3.24 0 0048 21v7.54a7.14 7.14 0 00-.93-.09 4.31 4.31 0 00-1.21.18V18.09a5.23 5.23 0 014.45-5.16 2.9 2.9 0 100-2 7.24 7.24 0 00-6.4 7.16v11.72a4.4 4.4 0 00-1 1.42c-3.08-6.2-9-11.7-16.15-11.7a18.52 18.52 0 00-13.85 5.6c-3.45 3.72-5 9-4.54 15.19a10.2 10.2 0 002.52 6.11 11.76 11.76 0 00-4.67 6.11 3.19 3.19 0 00.45 2.91A3.93 3.93 0 009.85 57h29.68a15.06 15.06 0 0015-15v-6A7.53 7.53 0 0050 29.08V21a1.22 1.22 0 01.54-1 2.88 2.88 0 102.59-4.13zM53 11a.89.89 0 11-.89.89A.89.89 0 0153 11zM14.32 26.49a16.58 16.58 0 0112.39-5c7.34 0 13.74 7.17 15.75 14.15V42a2.93 2.93 0 01-2.93 2.93h-6.22A12.11 12.11 0 0035 41.87a11 11 0 00-1-10.2 10.32 10.32 0 00-8.64-4.25c-4.58 0-9.33 3.17-9.33 8.43a6.17 6.17 0 001.6 4.3 6.32 6.32 0 005 1.63 4.36 4.36 0 003.54-1.67c1.38-1.87.69-4.54.66-4.65a1 1 0 00-1.22-.71 1 1 0 00-.68 1.25 4 4 0 01-.34 3 2.46 2.46 0 01-2 .85 4.39 4.39 0 01-3.45-1 4.17 4.17 0 01-1-2.85c0-4.06 3.73-6.48 7.33-6.48a8.34 8.34 0 017 3.4 9 9 0 01.72 8.36c-2.19 5.77-8.84 8.02-14.28 7.21-3.89-.58-8.2-3.07-8.6-8.32-.43-5.65.96-10.38 4.01-13.68zM52.57 36v6a13.06 13.06 0 01-13 13H9.85a2 2 0 01-1.61-.76 1.16 1.16 0 01-.17-1.11 9.82 9.82 0 014.29-5.32 13.69 13.69 0 006.26 2.62 16.33 16.33 0 002.45.18 16 16 0 0010.42-3.72h8A4.93 4.93 0 0044.46 42v-8.93a2.59 2.59 0 012.59-2.58A5.53 5.53 0 0152.57 36zm.54-16.32a.89.89 0 11.89-.88.89.89 0 01-.89.89z"/></svg></svg>